#tb 0: 1/1200
0,          0,          0,        0,    38400, 0x45311080
0,        100,        100,        0,    38400, 0x9474f731
0,        200,        200,        0,    38400, 0x429ebb12
0,        300,        300,        0,    38400, 0x472c199a
0,        400,        400,        0,    38400, 0xefd49dae
0,        500,        500,        0,    38400, 0x78627fa9
0,        600,        600,        0,    38400, 0x2a8d9148
0,        700,        700,        0,    38400, 0x21cc6738
0,        800,        800,        0,    38400, 0x0bc4703f
0,        900,        900,        0,    38400, 0x1ddcc035
